Coordinates
version=1
nRows=4
nColumns=107
inDegrees=yes

Units are S.I. units (second, meters, Newtons, ...)
If the header above contains a line with 'inDegrees', this indicates whether rotational values are in degrees (yes) or radians (no).

endheader
time	sternoclavicular_r2	sternoclavicular_r3	unrotscap_r3	unrotscap_r2	acromioclavicular_r2	acromioclavicular_r3	acromioclavicular_r1	unrothum_r1	unrothum_r3	unrothum_r2	elv_angle	shoulder_elv	shoulder1_r2	shoulder_rot	elbow_flexion	pro_sup	deviation	flexion	proximal_distal_r1	proximal_distal_r3	cmc_flexion	cmc_abduction	mp_flexion	ip_flexion	mcp2_flexion	mcp2_abduction	pm2_flexion	md2_flexion	mcp3_flexion	mcp3_abduction	pm3_flexion	md3_flexion	mcp4_flexion	mcp4_abduction	pm4_flexion	md4_flexion	mcp5_flexion	mcp5_abduction	pm5_flexion	md5_flexion	bicpt_tx	bicpt_ty	bicpt_tz	bicpt2_tx	bicpt2_ty	bicpt2_tz	ptpt_tx	ptpt_ty	ptpt_tz	FCUpt_tx	FCUpt_ty	FCUpt_tz	EDCpt_tx	EDCpt_ty	EDCpt_tz	APLpt_tx	APLpt_ty	APLpt_tz	FPLpt_tx	FPLpt_ty	FPLpt_tz	FPLpt2_tx	FPLpt2_ty	FPLpt2_tz	PEC1pt2_tx	PEC1pt2_ty	PEC1pt2_tz	PEC1pt3_tx	PEC1pt3_ty	PEC1pt3_tz	PEC2pt2_tx	PEC2pt2_ty	PEC2pt2_tz	PEC2pt3_tx	PEC2pt3_ty	PEC2pt3_tz	PEC3pt2_tx	PEC3pt2_ty	PEC3pt2_tz	PEC3pt3_tx	PEC3pt3_ty	PEC3pt3_tz	DELT2pt2a_tx	DELT2pt2a_ty	DELT2pt2a_tz	DELT2pt2_tx	DELT2pt2_ty	DELT2pt2_tz	LAT1pt2_tx	LAT1pt2_ty	LAT1pt2_tz	LAT1pt3_tx	LAT1pt3_ty	LAT1pt3_tz	LAT2pt2_tx	LAT2pt2_ty	LAT2pt2_tz	LAT2pt3_tx	LAT2pt3_ty	LAT2pt3_tz	LAT3pt2_tx	LAT3pt2_ty	LAT3pt2_tz	LAT3pt3_tx	LAT3pt3_ty	LAT3pt3_tz
      0.60000000	     -0.31807078	      0.13471977	     -0.13471977	      0.31807078	     -0.06440286	      0.52048129	      0.23395276	     -0.23395276	     -0.52048129	      0.06440286	     99.71904395	     75.30608552	     -1.74042564	    -28.10355757	     31.07580115	     55.47677152	      0.26420606	     -0.15271037	      0.30142910	     -0.07635518	     32.12758422	    -18.08327584	    -17.93061188	     -1.24347261	     -8.31732522	      9.69750792	     38.16911030	      3.41246467	      3.52132924	     -1.96722097	     22.14127499	     19.18471595	     19.77315617	     -4.36979938	      6.14590912	     22.53708970	     42.54159432	    -14.11015856	     -7.70875597	      5.07031501	      0.00092789	     -0.03116176	     -0.00487371	      0.01632933	     -0.01864189	     -0.00564994	      0.00345089	     -0.06755055	     -0.00451895	      0.00937538	     -0.18313910	     -0.00040609	     -0.00665720	      0.00204678	     -0.00002960	      0.00013671	      0.00005469	      0.00027343	      0.00017499	      0.00052498	      0.00029530	     -0.00001099	     -0.00022976	     -0.00027571	      0.00246837	      0.00866021	      0.00602449	     -0.00807449	      0.01949593	     -0.01849184	      0.00246837	      0.00866021	      0.00602449	      0.00054388	      0.01807348	     -0.00949694	      0.00391522	      0.00481583	      0.01588709	      0.00000000	      0.00758301	      0.00000000	     -0.00707041	     -0.03267450	     -0.00625141	      0.01801329	     -0.00069289	     -0.00659766	     -0.00087857	      0.01472654	     -0.00602449	      0.00242653	      0.02125307	     -0.01757143	     -0.00589898	      0.01276021	     -0.00539694	     -0.01230000	      0.02694287	     -0.03016430	     -0.02309389	      0.01426633	     -0.00723776	     -0.01531225	      0.03112654	     -0.03769491
      0.63333333	     -0.32042219	      0.13571572	     -0.13571572	      0.32042219	     -0.06487898	      0.52432906	      0.23568230	     -0.23568230	     -0.52432906	      0.06487898	     99.22482120	     75.86280156	     -1.73179983	    -25.73630848	     30.88330865	     53.32043074	      0.26057000	     -0.12325993	      0.29805656	     -0.06162996	     32.31324235	    -18.24665464	    -13.16106795	     -6.80629445	    -11.54971523	      9.04934268	     37.65525024	      2.83414604	      0.03387571	     -3.09442843	     20.54925191	     22.34663999	     16.86717894	     -4.90450053	      4.15876972	     28.01372976	     42.37351394	    -14.11650219	     -9.31427874	      5.03766684	      0.00092152	     -0.03113970	     -0.00487015	      0.01639637	     -0.01858960	     -0.00592369	      0.00361022	     -0.06744753	     -0.00434525	      0.00914870	     -0.18319278	     -0.00041418	     -0.00639844	      0.00194948	      0.00000272	      0.00011339	      0.00004536	      0.00022678	      0.00014514	      0.00043542	      0.00024492	     -0.00001116	     -0.00022775	     -0.00027330	      0.00248662	      0.00872423	      0.00606903	     -0.00813419	      0.01964005	     -0.01862855	      0.00248662	      0.00872423	      0.00606903	      0.00054790	      0.01820709	     -0.00956715	      0.00393641	      0.00485143	      0.01593938	      0.00000000	      0.00769631	      0.00000000	     -0.00712268	     -0.03291605	     -0.00634549	      0.01686643	     -0.00061431	     -0.00553788	     -0.00088507	      0.01483540	     -0.00606903	      0.00244447	      0.02141019	     -0.01770134	     -0.00594259	      0.01285454	     -0.00543684	     -0.01239093	      0.02714205	     -0.03038729	     -0.02326461	      0.01437180	     -0.00729126	     -0.01542545	      0.03135665	     -0.03797358
      0.66666667	     -0.32020335	      0.13562303	     -0.13562303	      0.32020335	     -0.06483467	      0.52397096	      0.23552134	     -0.23552134	     -0.52397096	      0.06483467	     99.34278996	     75.81099036	     -1.73385877	    -26.04113143	     30.73169017	     53.12670402	      0.25807102	     -0.12079071	      0.29572602	     -0.06039536	     33.21499197	    -17.32739362	    -13.23037578	     -6.47818435	    -12.59110730	      9.47501068	     37.21551691	      2.76434650	     -1.18154517	     -3.04624593	     20.15800766	     21.96300434	     16.20412486	     -4.85410435	      3.65775139	     27.44657229	     42.70298008	    -14.13426187	     -9.43969259	      4.95898324	      0.00091651	     -0.03112232	     -0.00486735	      0.01640183	     -0.01854841	     -0.00594794	      0.00362454	     -0.06743827	     -0.00432964	      0.00912841	     -0.18319753	     -0.00041472	     -0.00637519	      0.00194081	      0.00000549	      0.00011137	      0.00004455	      0.00022273	      0.00014255	      0.00042765	      0.00024055	     -0.00001188	     -0.00021747	     -0.00026096	      0.00248492	      0.00871827	      0.00606488	     -0.00812863	      0.01962664	     -0.01861583	      0.00248492	      0.00871827	      0.00606488	      0.00054752	      0.01819465	     -0.00956062	      0.00393444	      0.00484812	      0.01593455	      0.00000000	      0.00768573	      0.00000000	     -0.00711782	     -0.03289357	     -0.00633671	      0.01701825	     -0.00062433	     -0.00567019	     -0.00088446	      0.01482527	     -0.00606488	      0.00244280	      0.02139556	     -0.01768925	     -0.00593853	      0.01284576	     -0.00543313	     -0.01238247	      0.02712351	     -0.03036654	     -0.02324872	      0.01436198	     -0.00728628	     -0.01541491	      0.03133524	     -0.03794764
      0.70000000	     -0.32013616	      0.13559457	     -0.13559457	      0.32013616	     -0.06482106	      0.52386101	      0.23547192	     -0.23547192	     -0.52386101	      0.06482106	     99.34285266	     75.79508143	     -1.73385987	    -26.04370797	     30.72602898	     53.12191357	      0.25807911	     -0.12076189	      0.29573317	     -0.06038095	     33.21855065	    -17.32557517	    -13.22916293	     -6.47725006	    -12.59461196	      9.47469006	     37.21446712	      2.76403721	     -1.18762316	     -3.04805057	     20.15664703	     21.96217786	     16.20141245	     -4.85506758	      3.65570159	     27.44547624	     42.70741603	    -14.13491343	     -9.43896653	      4.95904114	      0.00091632	     -0.03112167	     -0.00486725	      0.01640196	     -0.01854688	     -0.00594854	      0.00362489	     -0.06743804	     -0.00432926	      0.00912791	     -0.18319765	     -0.00041473	     -0.00637461	      0.00194060	      0.00000556	      0.00011134	      0.00004454	      0.00022269	      0.00014252	      0.00042756	      0.00024050	     -0.00001188	     -0.00021742	     -0.00026091	      0.00248440	      0.00871644	      0.00606361	     -0.00812692	      0.01962252	     -0.01861192	      0.00248440	      0.00871644	      0.00606361	      0.00054741	      0.01819083	     -0.00955861	      0.00393384	      0.00484710	      0.01593306	      0.00000000	      0.00768249	      0.00000000	     -0.00711632	     -0.03288667	     -0.00633401	      0.01701952	     -0.00062441	     -0.00567133	     -0.00088428	      0.01482216	     -0.00606361	      0.00244229	      0.02139107	     -0.01768553	     -0.00593729	      0.01284307	     -0.00543199	     -0.01237987	      0.02711782	     -0.03036017	     -0.02324384	      0.01435897	     -0.00728476	     -0.01541168	      0.03132866	     -0.03793968
